# xmcd
#
# Track frame offsets: 
#        150
#        12940
#        26105
#        42389
#        63047
#        84101
#        96880
#        114341
#        131649
#        148727
#        170319
#        188720
#        206912
#        219449
#        246502
#
# Disc length: 3477 seconds
#
# Revision: 0
# Processed by: cddbd v1.5.2PL0 Copyright (c) Steve Scherf et al.
# Submitted via: ExactAudioCopyFreeDBPlugin 1.0
#
DISCID=d00d930f
DTITLE=Various Artist - American Style
DYEAR=1997
DGENRE=Country
TTITLE0=Tom Petty - Feel a whole lot better
TTITLE1=George Strait - Blue clear sky
TTITLE2=Vince Gill - Never alone
TTITLE3=Frazier River - Everything about you
TTITLE4=The Outfield - Going back
TTITLE5=Trisha Yearwood - Xxx's and ooo's (an american girl)
TTITLE6=Reba McEntire - The heart is a lonely hunter
TTITLE7=The Mavericks - Here comes the rain
TTITLE8=Maria McKee - Never be you
TTITLE9=Nelson - (You got me) All shook up
TTITLE10=Lawnie Wallace - Thought I was dreaming
TTITLE11=The Buffalo Club - Heart hold on
TTITLE12=Rhett Akins - Too much Texas
TTITLE13=Glenn Frey - Part of me, part of you
TTITLE14=Guns N' Roses - Used to love her
EXTD=
EXTT0=
EXTT1=
EXTT2=
EXTT3=
EXTT4=
EXTT5=
EXTT6=
EXTT7=
EXTT8=
EXTT9=
EXTT10=
EXTT11=
EXTT12=
EXTT13=
EXTT14=
PLAYORDER=
